<svg width="75" height="75" viewBox="0 0 75 75" fill="none" xmlns="http://www.w3.org/2000/svg">
<path d="M75 37.5C75 58.2107 58.2107 75 37.5 75C16.7893 75 0 58.2107 0 37.5C0 16.7893 16.7893 0 37.5 0C58.2107 0 75 16.7893 75 37.5Z" fill="white"/>
<path d="M44.8611 33.937L47.574 35.5193L53.0015 32.3547L44.8611 27.4107V33.937Z" fill="black"/>
<path d="M61.3366 23.8486L63.275 20.2892C64.8249 17.5192 60.3682 14.3545 58.2352 13.1695C56.1022 11.9818 51.2578 9.41048 49.7072 12.3783L46.9924 17.1253C44.2778 16.532 41.1765 16.1364 38.0759 16.1364C21.9872 16.1355 9 25.0371 9 35.9158C9 46.7928 21.9872 55.6935 38.0759 55.6935C38.0759 55.6935 38.0759 55.6935 38.2705 55.6935C38.4644 58.0671 35.7507 62.0229 31.873 64C47.1881 64 54.1655 52.3301 54.1655 52.3301C61.9181 48.7699 66.958 42.8359 66.958 35.9132C67.3456 31.3657 65.0195 27.212 61.3366 23.8486ZM22.3741 41.4541C20.8233 41.4541 19.6603 40.2656 19.6603 38.6833C19.6603 37.1008 20.8233 35.9141 22.3741 35.9141C23.9248 35.9141 25.0878 37.1008 25.0878 38.6833C25.0878 40.2656 23.7327 41.4541 22.3741 41.4541ZM29.5461 41.4541C27.9954 41.4541 26.8323 40.2656 26.8323 38.6833C26.8323 37.1008 27.9954 35.9141 29.5461 35.9141C31.0968 35.9141 32.2598 37.1008 32.2598 38.6833C32.2598 40.2656 31.0968 41.4541 29.5461 41.4541ZM36.7191 41.4541C35.1683 41.4541 34.0045 40.2656 34.0045 38.6833C34.0045 37.1008 35.1683 35.9141 36.7191 35.9141C38.2697 35.9141 39.4328 37.1008 39.4328 38.6833C39.4328 40.2656 38.2697 41.4541 36.7191 41.4541ZM53.9715 32.948L48.3502 36.1128L43.6973 38.6833V26.8164L51.4517 13.1686C51.8385 12.3774 54.5531 13.1686 57.4599 14.7509C60.3665 16.3333 62.3058 18.3104 61.7242 19.1024L53.9715 32.948Z" fill="black"/>
</svg>
